<svg width="694" height="482" viewBox="0 0 694 482" fill="none" xmlns="http://www.w3.org/2000/svg">
<g filter="url(#filter0_iiii_495_9726)">
<path d="M283.375 17.922C239.924 36.8463 266.327 92.8288 230.266 119.249C183.085 153.816 94.3587 142.65 57.5814 183.348C20.254 224.655 26.5649 279.514 45.4605 323.758C65.8974 371.611 105.235 417.115 166.307 437.928C226.66 458.497 301.958 451.476 368.56 433.87C427.576 418.27 463.993 375.695 513.642 346.114C561.641 317.515 631.223 304.202 655.562 262.872C679.943 221.471 664.307 173.461 637.064 136.531C612.969 103.867 559.716 92.985 516.397 74.217C483.297 59.8764 450.132 48.4712 413.239 39.5584C370.482 29.229 324.825 -0.130918 283.375 17.922Z" fill="#2AB1AD"/>
</g>
<defs>
<filter id="filter0_iiii_495_9726" x="0" y="-35" width="693.672" height="532.931" filterUnits="userSpaceOnUse" color-interpolation-filters="sRGB">
<feFlood flood-opacity="0" result="BackgroundImageFix"/>
<feBlend mode="normal" in="SourceGraphic" in2="BackgroundImageFix" result="shape"/>
<feColorMatrix in="SourceAlpha" type="matrix" values="0 0 0 0 0 0 0 0 0 0 0 0 0 0 0 0 0 0 127 0" result="hardAlpha"/>
<feOffset dy="16"/>
<feGaussianBlur stdDeviation="16"/>
<feComposite in2="hardAlpha" operator="arithmetic" k2="-1" k3="1"/>
<feColorMatrix type="matrix" values="0 0 0 0 0 0 0 0 0 0 0 0 0 0 0 0 0 0 0.16 0"/>
<feBlend mode="normal" in2="shape" result="effect1_innerShadow_495_9726"/>
<feColorMatrix in="SourceAlpha" type="matrix" values="0 0 0 0 0 0 0 0 0 0 0 0 0 0 0 0 0 0 127 0" result="hardAlpha"/>
<feOffset dy="8"/>
<feGaussianBlur stdDeviation="8"/>
<feComposite in2="hardAlpha" operator="arithmetic" k2="-1" k3="1"/>
<feColorMatrix type="matrix" values="0 0 0 0 0 0 0 0 0 0 0 0 0 0 0 0 0 0 0.12 0"/>
<feBlend mode="normal" in2="effect1_innerShadow_495_9726" result="effect2_innerShadow_495_9726"/>
<feColorMatrix in="SourceAlpha" type="matrix" values="0 0 0 0 0 0 0 0 0 0 0 0 0 0 0 0 0 0 127 0" result="hardAlpha"/>
<feOffset dy="4"/>
<feGaussianBlur stdDeviation="4"/>
<feComposite in2="hardAlpha" operator="arithmetic" k2="-1" k3="1"/>
<feColorMatrix type="matrix" values="0 0 0 0 0 0 0 0 0 0 0 0 0 0 0 0 0 0 0.12 0"/>
<feBlend mode="normal" in2="effect2_innerShadow_495_9726" result="effect3_innerShadow_495_9726"/>
<feColorMatrix in="SourceAlpha" type="matrix" values="0 0 0 0 0 0 0 0 0 0 0 0 0 0 0 0 0 0 127 0" result="hardAlpha"/>
<feOffset dy="2"/>
<feGaussianBlur stdDeviation="2"/>
<feComposite in2="hardAlpha" operator="arithmetic" k2="-1" k3="1"/>
<feColorMatrix type="matrix" values="0 0 0 0 0 0 0 0 0 0 0 0 0 0 0 0 0 0 0.12 0"/>
<feBlend mode="normal" in2="effect3_innerShadow_495_9726" result="effect4_innerShadow_495_9726"/>
</filter>
</defs>
</svg>
